<svg width="16" height="16" viewBox="0 0 16 16" fill="none" xmlns="http://www.w3.org/2000/svg">
<rect width="16" height="16" fill="white"/>
<path d="M6.643 3.926V10.465C6.643 10.8723 6.56933 11.245 6.422 11.583C6.28333 11.9123 6.07967 12.194 5.811 12.428C5.551 12.662 5.23467 12.844 4.862 12.974C4.48933 13.0953 4.07333 13.156 3.614 13.156C2.68667 13.156 1.96733 12.9263 1.456 12.467C0.953333 11.999 0.632667 11.388 0.494 10.634L2.34 10.257C2.40933 10.647 2.53933 10.9633 2.73 11.206C2.92933 11.4487 3.224 11.57 3.614 11.57C3.94333 11.57 4.199 11.466 4.381 11.258C4.57167 11.0413 4.667 10.712 4.667 10.27V5.525H1.677V3.926H6.643ZM8.62692 3.926H11.5519C12.7739 3.926 13.6796 4.316 14.2689 5.096C14.8583 5.876 15.1529 6.99833 15.1529 8.463C15.1529 9.92767 14.8583 11.05 14.2689 11.83C13.6796 12.61 12.7739 13 11.5519 13H8.62692V3.926ZM11.4219 11.466C12.0026 11.466 12.4273 11.2797 12.6959 10.907C12.9646 10.5343 13.0989 9.99267 13.0989 9.282V7.631C13.0989 6.929 12.9646 6.39167 12.6959 6.019C12.4273 5.64633 12.0026 5.46 11.4219 5.46H10.5509V11.466H11.4219Z" fill="black"/>
</svg>
