<svg width="287" height="44" viewBox="0 0 287 44" fill="none" xmlns="http://www.w3.org/2000/svg">
<path d="M18.396 11.872V29.98C18.396 31.108 18.192 32.14 17.784 33.076C17.4 33.988 16.836 34.768 16.092 35.416C15.372 36.064 14.496 36.568 13.464 36.928C12.432 37.264 11.28 37.432 10.008 37.432C7.44 37.432 5.448 36.796 4.032 35.524C2.64 34.228 1.752 32.536 1.368 30.448L6.48 29.404C6.672 30.484 7.032 31.36 7.56 32.032C8.112 32.704 8.928 33.04 10.008 33.04C10.92 33.04 11.628 32.752 12.132 32.176C12.66 31.576 12.924 30.664 12.924 29.44V16.3H4.644V11.872H18.396ZM32.3859 37.432C30.9459 37.432 29.6499 37.216 28.4979 36.784C27.3459 36.328 26.3619 35.68 25.5459 34.84C24.7539 34 24.1419 32.98 23.7099 31.78C23.2779 30.58 23.0619 29.224 23.0619 27.712C23.0619 26.2 23.2779 24.844 23.7099 23.644C24.1419 22.444 24.7539 21.424 25.5459 20.584C26.3619 19.744 27.3459 19.108 28.4979 18.676C29.6499 18.22 30.9459 17.992 32.3859 17.992C33.8259 17.992 35.1219 18.22 36.2739 18.676C37.4259 19.108 38.3979 19.744 39.1899 20.584C40.0059 21.424 40.6299 22.444 41.0619 23.644C41.4939 24.844 41.7099 26.2 41.7099 27.712C41.7099 29.224 41.4939 30.58 41.0619 31.78C40.6299 32.98 40.0059 34 39.1899 34.84C38.3979 35.68 37.4259 36.328 36.2739 36.784C35.1219 37.216 33.8259 37.432 32.3859 37.432ZM32.3859 33.472C33.5859 33.472 34.5219 33.1 35.1939 32.356C35.8659 31.612 36.2019 30.556 36.2019 29.188V26.236C36.2019 24.868 35.8659 23.812 35.1939 23.068C34.5219 22.324 33.5859 21.952 32.3859 21.952C31.1859 21.952 30.2499 22.324 29.5779 23.068C28.9059 23.812 28.5699 24.868 28.5699 26.236V29.188C28.5699 30.556 28.9059 31.612 29.5779 32.356C30.2499 33.1 31.1859 33.472 32.3859 33.472ZM60.7039 37C59.5999 37 58.7119 36.724 58.0399 36.172C57.3679 35.596 56.9719 34.78 56.8519 33.724H56.6719C56.3359 34.948 55.6639 35.872 54.6559 36.496C53.6719 37.12 52.4599 37.432 51.0199 37.432C49.2199 37.432 47.7679 36.952 46.6639 35.992C45.5839 35.008 45.0439 33.64 45.0439 31.888C45.0439 29.944 45.7519 28.504 47.1679 27.568C48.5839 26.632 50.6599 26.164 53.3959 26.164H56.3839V25.228C56.3839 24.124 56.1199 23.296 55.5919 22.744C55.0879 22.168 54.2239 21.88 52.9999 21.88C51.8719 21.88 50.9599 22.096 50.2639 22.528C49.5679 22.96 48.9679 23.524 48.4639 24.22L45.5479 21.628C46.1719 20.572 47.1439 19.708 48.4639 19.036C49.8079 18.34 51.5239 17.992 53.6119 17.992C56.1559 17.992 58.1359 18.58 59.5519 19.756C60.9919 20.908 61.7119 22.66 61.7119 25.012V33.148H63.7639V37H60.7039ZM53.0359 33.94C53.9719 33.94 54.7639 33.712 55.4119 33.256C56.0599 32.8 56.3839 32.14 56.3839 31.276V29.044H53.5399C51.3559 29.044 50.2639 29.776 50.2639 31.24V31.96C50.2639 32.608 50.5159 33.1 51.0199 33.436C51.5239 33.772 52.1959 33.94 53.0359 33.94ZM66.8818 10.36H72.2098V21.808H72.4618C72.9178 20.704 73.5778 19.792 74.4418 19.072C75.3058 18.352 76.4818 17.992 77.9698 17.992C79.0018 17.992 79.9378 18.184 80.7778 18.568C81.6418 18.952 82.3738 19.54 82.9738 20.332C83.5978 21.124 84.0778 22.132 84.4138 23.356C84.7738 24.58 84.9538 26.032 84.9538 27.712C84.9538 29.392 84.7738 30.844 84.4138 32.068C84.0778 33.292 83.5978 34.3 82.9738 35.092C82.3738 35.884 81.6418 36.472 80.7778 36.856C79.9378 37.24 79.0018 37.432 77.9698 37.432C76.4818 37.432 75.3058 37.084 74.4418 36.388C73.5778 35.668 72.9178 34.744 72.4618 33.616H72.2098V37H66.8818V10.36ZM75.6658 33.292C76.8658 33.292 77.7898 32.932 78.4378 32.212C79.0858 31.468 79.4098 30.448 79.4098 29.152V26.272C79.4098 24.976 79.0858 23.968 78.4378 23.248C77.7898 22.504 76.8658 22.132 75.6658 22.132C74.7298 22.132 73.9138 22.36 73.2178 22.816C72.5458 23.272 72.2098 23.992 72.2098 24.976V30.448C72.2098 31.432 72.5458 32.152 73.2178 32.608C73.9138 33.064 74.7298 33.292 75.6658 33.292ZM97.6478 37.432C94.5278 37.432 92.1638 36.568 90.5558 34.84C88.9478 33.112 88.1438 30.76 88.1438 27.784C88.1438 26.272 88.3478 24.916 88.7558 23.716C89.1878 22.492 89.7878 21.46 90.5558 20.62C91.3478 19.756 92.2958 19.108 93.3998 18.676C94.5278 18.22 95.7878 17.992 97.1798 17.992C98.5718 17.992 99.8198 18.22 100.924 18.676C102.028 19.108 102.964 19.732 103.732 20.548C104.5 21.364 105.088 22.36 105.496 23.536C105.928 24.688 106.144 25.984 106.144 27.424V29.008H93.4358V29.332C93.4358 30.532 93.8078 31.504 94.5518 32.248C95.2958 32.968 96.3878 33.328 97.8278 33.328C98.9318 33.328 99.8798 33.124 100.672 32.716C101.464 32.284 102.148 31.72 102.724 31.024L105.604 34.156C104.884 35.044 103.876 35.812 102.58 36.46C101.284 37.108 99.6398 37.432 97.6478 37.432ZM97.2158 21.808C96.0638 21.808 95.1398 22.168 94.4438 22.888C93.7718 23.584 93.4358 24.532 93.4358 25.732V26.02H100.924V25.732C100.924 24.508 100.588 23.548 99.9158 22.852C99.2678 22.156 98.3678 21.808 97.2158 21.808ZM131.82 11.872H139.92C143.304 11.872 145.812 12.952 147.444 15.112C149.076 17.272 149.892 20.38 149.892 24.436C149.892 28.492 149.076 31.6 147.444 33.76C145.812 35.92 143.304 37 139.92 37H131.82V11.872ZM139.56 32.752C141.168 32.752 142.344 32.236 143.088 31.204C143.832 30.172 144.204 28.672 144.204 26.704V22.132C144.204 20.188 143.832 18.7 143.088 17.668C142.344 16.636 141.168 16.12 139.56 16.12H137.148V32.752H139.56ZM165.034 33.616H164.818C164.41 34.672 163.762 35.572 162.874 36.316C162.01 37.06 160.834 37.432 159.346 37.432C158.458 37.432 157.642 37.288 156.898 37C156.154 36.688 155.518 36.232 154.99 35.632C154.462 35.032 154.042 34.3 153.73 33.436C153.442 32.572 153.298 31.576 153.298 30.448V18.424H158.626V29.728C158.626 32.128 159.67 33.328 161.758 33.328C162.166 33.328 162.562 33.28 162.946 33.184C163.354 33.064 163.702 32.896 163.99 32.68C164.302 32.44 164.554 32.152 164.746 31.816C164.938 31.48 165.034 31.084 165.034 30.628V18.424H170.362V37H165.034V33.616ZM190.22 37C189.116 37 188.228 36.724 187.556 36.172C186.884 35.596 186.488 34.78 186.368 33.724H186.188C185.852 34.948 185.18 35.872 184.172 36.496C183.188 37.12 181.976 37.432 180.536 37.432C178.736 37.432 177.284 36.952 176.18 35.992C175.1 35.008 174.56 33.64 174.56 31.888C174.56 29.944 175.268 28.504 176.684 27.568C178.1 26.632 180.176 26.164 182.912 26.164H185.9V25.228C185.9 24.124 185.636 23.296 185.108 22.744C184.604 22.168 183.74 21.88 182.516 21.88C181.388 21.88 180.476 22.096 179.78 22.528C179.084 22.96 178.484 23.524 177.979 24.22L175.063 21.628C175.688 20.572 176.66 19.708 177.979 19.036C179.324 18.34 181.04 17.992 183.128 17.992C185.672 17.992 187.652 18.58 189.068 19.756C190.508 20.908 191.228 22.66 191.228 25.012V33.148H193.28V37H190.22ZM182.552 33.94C183.488 33.94 184.28 33.712 184.928 33.256C185.576 32.8 185.9 32.14 185.9 31.276V29.044H183.056C180.872 29.044 179.78 29.776 179.78 31.24V31.96C179.78 32.608 180.032 33.1 180.536 33.436C181.04 33.772 181.712 33.94 182.552 33.94ZM196.937 32.86H201.221V22.564H196.937V18.424H206.549V23.68H206.801C206.969 23.008 207.197 22.36 207.485 21.736C207.797 21.088 208.181 20.524 208.637 20.044C209.117 19.54 209.693 19.144 210.365 18.856C211.037 18.568 211.829 18.424 212.741 18.424H214.505V23.32H210.545C209.225 23.32 208.229 23.716 207.557 24.508C206.885 25.276 206.549 26.224 206.549 27.352V32.86H212.669V37H196.937V32.86ZM228.099 37C226.179 37 224.751 36.496 223.815 35.488C222.879 34.48 222.411 33.196 222.411 31.636V22.564H217.371V18.424H220.647C221.439 18.424 222.003 18.268 222.339 17.956C222.675 17.644 222.843 17.068 222.843 16.228V11.872H227.739V18.424H234.975V22.564H227.739V32.86H234.975V37H228.099Z" fill="black"/>
<path d="M247.304 43.432C244.184 43.432 241.82 42.568 240.212 40.84C238.604 39.112 237.8 36.76 237.8 33.784C237.8 32.272 238.004 30.916 238.412 29.716C238.844 28.492 239.444 27.46 240.212 26.62C241.004 25.756 241.952 25.108 243.056 24.676C244.184 24.22 245.444 23.992 246.836 23.992C248.228 23.992 249.476 24.22 250.58 24.676C251.684 25.108 252.62 25.732 253.388 26.548C254.156 27.364 254.744 28.36 255.152 29.536C255.584 30.688 255.8 31.984 255.8 33.424V35.008H243.092V35.332C243.092 36.532 243.464 37.504 244.208 38.248C244.952 38.968 246.044 39.328 247.484 39.328C248.588 39.328 249.536 39.124 250.328 38.716C251.12 38.284 251.804 37.72 252.38 37.024L255.26 40.156C254.54 41.044 253.532 41.812 252.236 42.46C250.94 43.108 249.296 43.432 247.304 43.432ZM246.872 27.808C245.72 27.808 244.796 28.168 244.1 28.888C243.428 29.584 243.092 30.532 243.092 31.732V32.02H250.58V31.732C250.58 30.508 250.244 29.548 249.572 28.852C248.924 28.156 248.024 27.808 246.872 27.808Z" fill="black"/>
</svg>
