<svg width="257" height="28" viewBox="0 0 257 28" fill="none" xmlns="http://www.w3.org/2000/svg">
<path d="M17.396 1.872V19.98C17.396 21.108 17.192 22.14 16.784 23.076C16.4 23.988 15.836 24.768 15.092 25.416C14.372 26.064 13.496 26.568 12.464 26.928C11.432 27.264 10.28 27.432 9.008 27.432C6.44 27.432 4.448 26.796 3.032 25.524C1.64 24.228 0.752 22.536 0.368 20.448L5.48 19.404C5.672 20.484 6.032 21.36 6.56 22.032C7.112 22.704 7.928 23.04 9.008 23.04C9.92 23.04 10.628 22.752 11.132 22.176C11.66 21.576 11.924 20.664 11.924 19.44V6.3H3.644V1.872H17.396ZM31.3859 27.432C29.9459 27.432 28.6499 27.216 27.4979 26.784C26.3459 26.328 25.3619 25.68 24.5459 24.84C23.7539 24 23.1419 22.98 22.7099 21.78C22.2779 20.58 22.0619 19.224 22.0619 17.712C22.0619 16.2 22.2779 14.844 22.7099 13.644C23.1419 12.444 23.7539 11.424 24.5459 10.584C25.3619 9.744 26.3459 9.108 27.4979 8.676C28.6499 8.22 29.9459 7.992 31.3859 7.992C32.8259 7.992 34.1219 8.22 35.2739 8.676C36.4259 9.108 37.3979 9.744 38.1899 10.584C39.0059 11.424 39.6299 12.444 40.0619 13.644C40.4939 14.844 40.7099 16.2 40.7099 17.712C40.7099 19.224 40.4939 20.58 40.0619 21.78C39.6299 22.98 39.0059 24 38.1899 24.84C37.3979 25.68 36.4259 26.328 35.2739 26.784C34.1219 27.216 32.8259 27.432 31.3859 27.432ZM31.3859 23.472C32.5859 23.472 33.5219 23.1 34.1939 22.356C34.8659 21.612 35.2019 20.556 35.2019 19.188V16.236C35.2019 14.868 34.8659 13.812 34.1939 13.068C33.5219 12.324 32.5859 11.952 31.3859 11.952C30.1859 11.952 29.2499 12.324 28.5779 13.068C27.9059 13.812 27.5699 14.868 27.5699 16.236V19.188C27.5699 20.556 27.9059 21.612 28.5779 22.356C29.2499 23.1 30.1859 23.472 31.3859 23.472ZM59.7039 27C58.5999 27 57.7119 26.724 57.0399 26.172C56.3679 25.596 55.9719 24.78 55.8519 23.724H55.6719C55.3359 24.948 54.6639 25.872 53.6559 26.496C52.6719 27.12 51.4599 27.432 50.0199 27.432C48.2199 27.432 46.7679 26.952 45.6639 25.992C44.5839 25.008 44.0439 23.64 44.0439 21.888C44.0439 19.944 44.7519 18.504 46.1679 17.568C47.5839 16.632 49.6599 16.164 52.3959 16.164H55.3839V15.228C55.3839 14.124 55.1199 13.296 54.5919 12.744C54.0879 12.168 53.2239 11.88 51.9999 11.88C50.8719 11.88 49.9599 12.096 49.2639 12.528C48.5679 12.96 47.9679 13.524 47.4639 14.22L44.5479 11.628C45.1719 10.572 46.1439 9.708 47.4639 9.036C48.8079 8.34 50.5239 7.992 52.6119 7.992C55.1559 7.992 57.1359 8.58 58.5519 9.756C59.9919 10.908 60.7119 12.66 60.7119 15.012V23.148H62.7639V27H59.7039ZM52.0359 23.94C52.9719 23.94 53.7639 23.712 54.4119 23.256C55.0599 22.8 55.3839 22.14 55.3839 21.276V19.044H52.5399C50.3559 19.044 49.2639 19.776 49.2639 21.24V21.96C49.2639 22.608 49.5159 23.1 50.0199 23.436C50.5239 23.772 51.1959 23.94 52.0359 23.94ZM65.8818 0.36H71.2098V11.808H71.4618C71.9178 10.704 72.5778 9.792 73.4418 9.072C74.3058 8.352 75.4818 7.992 76.9698 7.992C78.0018 7.992 78.9378 8.184 79.7778 8.568C80.6418 8.952 81.3738 9.54 81.9738 10.332C82.5978 11.124 83.0778 12.132 83.4138 13.356C83.7738 14.58 83.9538 16.032 83.9538 17.712C83.9538 19.392 83.7738 20.844 83.4138 22.068C83.0778 23.292 82.5978 24.3 81.9738 25.092C81.3738 25.884 80.6418 26.472 79.7778 26.856C78.9378 27.24 78.0018 27.432 76.9698 27.432C75.4818 27.432 74.3058 27.084 73.4418 26.388C72.5778 25.668 71.9178 24.744 71.4618 23.616H71.2098V27H65.8818V0.36ZM74.6658 23.292C75.8658 23.292 76.7898 22.932 77.4378 22.212C78.0858 21.468 78.4098 20.448 78.4098 19.152V16.272C78.4098 14.976 78.0858 13.968 77.4378 13.248C76.7898 12.504 75.8658 12.132 74.6658 12.132C73.7298 12.132 72.9138 12.36 72.2178 12.816C71.5458 13.272 71.2098 13.992 71.2098 14.976V20.448C71.2098 21.432 71.5458 22.152 72.2178 22.608C72.9138 23.064 73.7298 23.292 74.6658 23.292ZM96.6478 27.432C93.5278 27.432 91.1638 26.568 89.5558 24.84C87.9478 23.112 87.1438 20.76 87.1438 17.784C87.1438 16.272 87.3478 14.916 87.7558 13.716C88.1878 12.492 88.7878 11.46 89.5558 10.62C90.3478 9.756 91.2958 9.108 92.3998 8.676C93.5278 8.22 94.7878 7.992 96.1798 7.992C97.5718 7.992 98.8198 8.22 99.9238 8.676C101.028 9.108 101.964 9.732 102.732 10.548C103.5 11.364 104.088 12.36 104.496 13.536C104.928 14.688 105.144 15.984 105.144 17.424V19.008H92.4358V19.332C92.4358 20.532 92.8078 21.504 93.5518 22.248C94.2958 22.968 95.3878 23.328 96.8278 23.328C97.9318 23.328 98.8798 23.124 99.6718 22.716C100.464 22.284 101.148 21.72 101.724 21.024L104.604 24.156C103.884 25.044 102.876 25.812 101.58 26.46C100.284 27.108 98.6398 27.432 96.6478 27.432ZM96.2158 11.808C95.0638 11.808 94.1398 12.168 93.4438 12.888C92.7718 13.584 92.4358 14.532 92.4358 15.732V16.02H99.9238V15.732C99.9238 14.508 99.5878 13.548 98.9158 12.852C98.2678 12.156 97.3678 11.808 96.2158 11.808ZM130.82 1.872H138.92C142.304 1.872 144.812 2.952 146.444 5.112C148.076 7.272 148.892 10.38 148.892 14.436C148.892 18.492 148.076 21.6 146.444 23.76C144.812 25.92 142.304 27 138.92 27H130.82V1.872ZM138.56 22.752C140.168 22.752 141.344 22.236 142.088 21.204C142.832 20.172 143.204 18.672 143.204 16.704V12.132C143.204 10.188 142.832 8.7 142.088 7.668C141.344 6.636 140.168 6.12 138.56 6.12H136.148V22.752H138.56ZM164.034 23.616H163.818C163.41 24.672 162.762 25.572 161.874 26.316C161.01 27.06 159.834 27.432 158.346 27.432C157.458 27.432 156.642 27.288 155.898 27C155.154 26.688 154.518 26.232 153.99 25.632C153.462 25.032 153.042 24.3 152.73 23.436C152.442 22.572 152.298 21.576 152.298 20.448V8.424H157.626V19.728C157.626 22.128 158.67 23.328 160.758 23.328C161.166 23.328 161.562 23.28 161.946 23.184C162.354 23.064 162.702 22.896 162.99 22.68C163.302 22.44 163.554 22.152 163.746 21.816C163.938 21.48 164.034 21.084 164.034 20.628V8.424H169.362V27H164.034V23.616ZM189.22 27C188.116 27 187.228 26.724 186.556 26.172C185.884 25.596 185.488 24.78 185.368 23.724H185.188C184.852 24.948 184.18 25.872 183.172 26.496C182.188 27.12 180.976 27.432 179.536 27.432C177.736 27.432 176.284 26.952 175.18 25.992C174.1 25.008 173.56 23.64 173.56 21.888C173.56 19.944 174.268 18.504 175.684 17.568C177.1 16.632 179.176 16.164 181.912 16.164H184.9V15.228C184.9 14.124 184.636 13.296 184.108 12.744C183.604 12.168 182.74 11.88 181.516 11.88C180.388 11.88 179.476 12.096 178.78 12.528C178.084 12.96 177.484 13.524 176.979 14.22L174.063 11.628C174.688 10.572 175.66 9.708 176.979 9.036C178.324 8.34 180.04 7.992 182.128 7.992C184.672 7.992 186.652 8.58 188.068 9.756C189.508 10.908 190.228 12.66 190.228 15.012V23.148H192.28V27H189.22ZM181.552 23.94C182.488 23.94 183.28 23.712 183.928 23.256C184.576 22.8 184.9 22.14 184.9 21.276V19.044H182.056C179.872 19.044 178.78 19.776 178.78 21.24V21.96C178.78 22.608 179.032 23.1 179.536 23.436C180.04 23.772 180.712 23.94 181.552 23.94ZM195.937 22.86H200.221V12.564H195.937V8.424H205.549V13.68H205.801C205.969 13.008 206.197 12.36 206.485 11.736C206.797 11.088 207.181 10.524 207.637 10.044C208.117 9.54 208.693 9.144 209.365 8.856C210.037 8.568 210.829 8.424 211.741 8.424H213.505V13.32H209.545C208.225 13.32 207.229 13.716 206.557 14.508C205.885 15.276 205.549 16.224 205.549 17.352V22.86H211.669V27H195.937V22.86ZM227.099 27C225.179 27 223.751 26.496 222.815 25.488C221.879 24.48 221.411 23.196 221.411 21.636V12.564H216.371V8.424H219.647C220.439 8.424 221.003 8.268 221.339 7.956C221.675 7.644 221.843 7.068 221.843 6.228V1.872H226.739V8.424H233.975V12.564H226.739V22.86H233.975V27H227.099ZM247.749 27.432C244.629 27.432 242.265 26.568 240.657 24.84C239.049 23.112 238.245 20.76 238.245 17.784C238.245 16.272 238.449 14.916 238.857 13.716C239.289 12.492 239.889 11.46 240.657 10.62C241.449 9.756 242.397 9.108 243.501 8.676C244.629 8.22 245.889 7.992 247.281 7.992C248.673 7.992 249.921 8.22 251.025 8.676C252.129 9.108 253.065 9.732 253.833 10.548C254.601 11.364 255.189 12.36 255.597 13.536C256.029 14.688 256.245 15.984 256.245 17.424V19.008H243.537V19.332C243.537 20.532 243.909 21.504 244.653 22.248C245.397 22.968 246.489 23.328 247.929 23.328C249.033 23.328 249.981 23.124 250.773 22.716C251.565 22.284 252.249 21.72 252.825 21.024L255.705 24.156C254.985 25.044 253.977 25.812 252.681 26.46C251.385 27.108 249.741 27.432 247.749 27.432ZM247.317 11.808C246.165 11.808 245.241 12.168 244.545 12.888C243.873 13.584 243.537 14.532 243.537 15.732V16.02H251.025V15.732C251.025 14.508 250.689 13.548 250.017 12.852C249.369 12.156 248.469 11.808 247.317 11.808Z" fill="black"/>
</svg>
